<svg width="40" height="40" viewBox="0 0 40 40" fill="none" xmlns="http://www.w3.org/2000/svg">
<g clip-path="url(#clip0_16_233)">
<path d="M1.66669 1.6665H8.33335L12.8 23.9832C12.9524 24.7505 13.3699 25.4398 13.9793 25.9303C14.5887 26.4209 15.3512 26.6815 16.1334 26.6665H32.3334C33.1155 26.6815 33.878 26.4209 34.4874 25.9303C35.0968 25.4398 35.5143 24.7505 35.6667 23.9832L38.3334 9.99984H10M16.6667 34.9998C16.6667 35.9203 15.9205 36.6665 15 36.6665C14.0795 36.6665 13.3334 35.9203 13.3334 34.9998C13.3334 34.0794 14.0795 33.3332 15 33.3332C15.9205 33.3332 16.6667 34.0794 16.6667 34.9998ZM35 34.9998C35 35.9203 34.2538 36.6665 33.3334 36.6665C32.4129 36.6665 31.6667 35.9203 31.6667 34.9998C31.6667 34.0794 32.4129 33.3332 33.3334 33.3332C34.2538 33.3332 35 34.0794 35 34.9998Z" stroke="#1E1E1E" stroke-width="4" stroke-linecap="round" stroke-linejoin="round"/>
</g>
<defs>
<clipPath id="clip0_16_233">
<rect width="40" height="40" fill="white"/>
</clipPath>
</defs>
</svg>
