<svg width="135" height="32" viewBox="0 0 135 32" fill="none" xmlns="http://www.w3.org/2000/svg">
<g filter="url(#filter0_d_16_229)">
<mask id="path-1-outside-1_16_229" maskUnits="userSpaceOnUse" x="3" y="-1" width="130" height="26" fill="black">
<rect fill="white" x="3" y="-1" width="130" height="26"/>
<path d="M24.2676 0.559999V13.854C24.2676 17.0273 23.4176 19.4073 21.7176 20.994C20.0403 22.558 17.547 23.34 14.2376 23.34C10.951 23.34 8.45762 22.558 6.75762 20.994C5.05762 19.4073 4.20762 17.0273 4.20762 13.854V0.559999H10.0896V13.956C10.0896 15.5653 10.4296 16.7667 11.1096 17.56C11.8123 18.3533 12.855 18.75 14.2376 18.75C15.643 18.75 16.6856 18.3533 17.3656 17.56C18.0683 16.7667 18.4196 15.5653 18.4196 13.956V0.559999H24.2676ZM54.0843 0.559999V23H48.9163V12.698L49.0863 5.796H49.0183L43.4763 23H38.7503L33.2083 5.796H33.1403L33.3103 12.698V23H28.1083V0.559999H36.4383L39.9743 11.984L41.2323 16.744H41.3003L42.5923 12.018L46.0943 0.559999H54.0843ZM78.7736 23H72.7556L71.1916 17.934H63.5076L61.9096 23H56.0276L63.9156 0.559999H70.9196L78.7736 23ZM64.5956 13.956H70.1036L67.3496 4.878L64.5956 13.956ZM106.679 0.559999V23H101.511V12.698L101.681 5.796H101.613L96.0714 23H91.3454L85.8034 5.796H85.7354L85.9054 12.698V23H80.7034V0.559999H89.0334L92.5694 11.984L93.8274 16.744H93.8954L95.1874 12.018L98.6894 0.559999H106.679ZM130.485 0.559999L122.563 14.806V23H116.715V14.806L108.793 0.559999H114.845L118.007 6.714L119.673 10.454L121.373 6.714L124.535 0.559999H130.485Z"/>
</mask>
<path d="M24.2676 0.559999V13.854C24.2676 17.0273 23.4176 19.4073 21.7176 20.994C20.0403 22.558 17.547 23.34 14.2376 23.34C10.951 23.34 8.45762 22.558 6.75762 20.994C5.05762 19.4073 4.20762 17.0273 4.20762 13.854V0.559999H10.0896V13.956C10.0896 15.5653 10.4296 16.7667 11.1096 17.56C11.8123 18.3533 12.855 18.75 14.2376 18.75C15.643 18.75 16.6856 18.3533 17.3656 17.56C18.0683 16.7667 18.4196 15.5653 18.4196 13.956V0.559999H24.2676ZM54.0843 0.559999V23H48.9163V12.698L49.0863 5.796H49.0183L43.4763 23H38.7503L33.2083 5.796H33.1403L33.3103 12.698V23H28.1083V0.559999H36.4383L39.9743 11.984L41.2323 16.744H41.3003L42.5923 12.018L46.0943 0.559999H54.0843ZM78.7736 23H72.7556L71.1916 17.934H63.5076L61.9096 23H56.0276L63.9156 0.559999H70.9196L78.7736 23ZM64.5956 13.956H70.1036L67.3496 4.878L64.5956 13.956ZM106.679 0.559999V23H101.511V12.698L101.681 5.796H101.613L96.0714 23H91.3454L85.8034 5.796H85.7354L85.9054 12.698V23H80.7034V0.559999H89.0334L92.5694 11.984L93.8274 16.744H93.8954L95.1874 12.018L98.6894 0.559999H106.679ZM130.485 0.559999L122.563 14.806V23H116.715V14.806L108.793 0.559999H114.845L118.007 6.714L119.673 10.454L121.373 6.714L124.535 0.559999H130.485Z" fill="#009951"/>
<path d="M24.2676 0.559999H25.2676V-0.440001H24.2676V0.559999ZM21.7176 20.994L22.3996 21.7254L22.3999 21.7251L21.7176 20.994ZM6.75762 20.994L6.07528 21.7251L6.08056 21.7299L6.75762 20.994ZM4.20762 0.559999V-0.440001H3.20762V0.559999H4.20762ZM10.0896 0.559999H11.0896V-0.440001H10.0896V0.559999ZM11.1096 17.56L10.3504 18.2108L10.3556 18.217L10.361 18.223L11.1096 17.56ZM17.3656 17.56L16.617 16.897L16.6116 16.903L16.6064 16.9092L17.3656 17.56ZM18.4196 0.559999V-0.440001H17.4196V0.559999H18.4196ZM23.2676 0.559999V13.854H25.2676V0.559999H23.2676ZM23.2676 13.854C23.2676 16.8548 22.4671 18.9266 21.0353 20.2629L22.3999 21.7251C24.3682 19.888 25.2676 17.1998 25.2676 13.854H23.2676ZM21.0357 20.2626C19.6114 21.5907 17.4052 22.34 14.2376 22.34V24.34C17.6887 24.34 20.4692 23.5253 22.3996 21.7254L21.0357 20.2626ZM14.2376 22.34C11.0961 22.34 8.8848 21.5922 7.43467 20.2581L6.08056 21.7299C8.03043 23.5238 10.8058 24.34 14.2376 24.34V22.34ZM7.43994 20.2629C6.00816 18.9266 5.20762 16.8548 5.20762 13.854H3.20762C3.20762 17.1998 4.10708 19.888 6.0753 21.7251L7.43994 20.2629ZM5.20762 13.854V0.559999H3.20762V13.854H5.20762ZM4.20762 1.56H10.0896V-0.440001H4.20762V1.56ZM9.08962 0.559999V13.956H11.0896V0.559999H9.08962ZM9.08962 13.956C9.08962 15.6807 9.45015 17.1605 10.3504 18.2108L11.8689 16.9092C11.4091 16.3728 11.0896 15.45 11.0896 13.956H9.08962ZM10.361 18.223C11.3073 19.2914 12.6613 19.75 14.2376 19.75V17.75C13.0486 17.75 12.3173 17.4153 11.8582 16.897L10.361 18.223ZM14.2376 19.75C15.8285 19.75 17.1952 19.2955 18.1249 18.2108L16.6064 16.9092C16.1761 17.4112 15.4574 17.75 14.2376 17.75V19.75ZM18.1142 18.223C19.0449 17.1723 19.4196 15.6872 19.4196 13.956H17.4196C17.4196 15.4434 17.0917 16.3611 16.617 16.897L18.1142 18.223ZM19.4196 13.956V0.559999H17.4196V13.956H19.4196ZM18.4196 1.56H24.2676V-0.440001H18.4196V1.56ZM54.0843 0.559999H55.0843V-0.440001H54.0843V0.559999ZM54.0843 23V24H55.0843V23H54.0843ZM48.9163 23H47.9163V24H48.9163V23ZM48.9163 12.698L47.9166 12.6734L47.9163 12.6857V12.698H48.9163ZM49.0863 5.796L50.086 5.82062L50.1112 4.796H49.0863V5.796ZM49.0183 5.796V4.796H48.2898L48.0665 5.48938L49.0183 5.796ZM43.4763 23V24H44.2048L44.4281 23.3066L43.4763 23ZM38.7503 23L37.7985 23.3066L38.0218 24H38.7503V23ZM33.2083 5.796L34.1601 5.48938L33.9368 4.796H33.2083V5.796ZM33.1403 5.796V4.796H32.1154L32.1406 5.82062L33.1403 5.796ZM33.3103 12.698H34.3103V12.6857L34.31 12.6734L33.3103 12.698ZM33.3103 23V24H34.3103V23H33.3103ZM28.1083 23H27.1083V24H28.1083V23ZM28.1083 0.559999V-0.440001H27.1083V0.559999H28.1083ZM36.4383 0.559999L37.3936 0.264316L37.1756 -0.440001H36.4383V0.559999ZM39.9743 11.984L40.9411 11.7285L40.9358 11.7083L40.9296 11.6883L39.9743 11.984ZM41.2323 16.744L40.2655 16.9995L40.4622 17.744H41.2323V16.744ZM41.3003 16.744V17.744H42.0636L42.2649 17.0077L41.3003 16.744ZM42.5923 12.018L41.636 11.7257L41.6316 11.7399L41.6277 11.7543L42.5923 12.018ZM46.0943 0.559999V-0.440001H45.3543L45.138 0.267709L46.0943 0.559999ZM53.0843 0.559999V23H55.0843V0.559999H53.0843ZM54.0843 22H48.9163V24H54.0843V22ZM49.9163 23V12.698H47.9163V23H49.9163ZM49.916 12.7226L50.086 5.82062L48.0866 5.77138L47.9166 12.6734L49.916 12.7226ZM49.0863 4.796H49.0183V6.796H49.0863V4.796ZM48.0665 5.48938L42.5245 22.6934L44.4281 23.3066L49.9701 6.10262L48.0665 5.48938ZM43.4763 22H38.7503V24H43.4763V22ZM39.7021 22.6934L34.1601 5.48938L32.2565 6.10262L37.7985 23.3066L39.7021 22.6934ZM33.2083 4.796H33.1403V6.796H33.2083V4.796ZM32.1406 5.82062L32.3106 12.7226L34.31 12.6734L34.14 5.77138L32.1406 5.82062ZM32.3103 12.698V23H34.3103V12.698H32.3103ZM33.3103 22H28.1083V24H33.3103V22ZM29.1083 23V0.559999H27.1083V23H29.1083ZM28.1083 1.56H36.4383V-0.440001H28.1083V1.56ZM35.483 0.855682L39.019 12.2797L40.9296 11.6883L37.3936 0.264316L35.483 0.855682ZM39.0075 12.2395L40.2655 16.9995L42.1991 16.4885L40.9411 11.7285L39.0075 12.2395ZM41.2323 17.744H41.3003V15.744H41.2323V17.744ZM42.2649 17.0077L43.5569 12.2817L41.6277 11.7543L40.3357 16.4803L42.2649 17.0077ZM43.5486 12.3103L47.0506 0.85229L45.138 0.267709L41.636 11.7257L43.5486 12.3103ZM46.0943 1.56H54.0843V-0.440001H46.0943V1.56ZM78.7736 23V24H80.1831L79.7175 22.6696L78.7736 23ZM72.7556 23L71.8001 23.295L72.0178 24H72.7556V23ZM71.1916 17.934L72.1471 17.639L71.9295 16.934H71.1916V17.934ZM63.5076 17.934V16.934H62.7745L62.5539 17.6332L63.5076 17.934ZM61.9096 23V24H62.6427L62.8633 23.3008L61.9096 23ZM56.0276 23L55.0842 22.6684L54.6161 24H56.0276V23ZM63.9156 0.559999V-0.440001H63.2071L62.9722 0.228375L63.9156 0.559999ZM70.9196 0.559999L71.8635 0.229649L71.6291 -0.440001H70.9196V0.559999ZM64.5956 13.956L63.6387 13.6657L63.2472 14.956H64.5956V13.956ZM70.1036 13.956V14.956H71.452L71.0605 13.6657L70.1036 13.956ZM67.3496 4.878L68.3065 4.58769L67.3496 1.43335L66.3927 4.58769L67.3496 4.878ZM78.7736 22H72.7556V24H78.7736V22ZM73.7111 22.705L72.1471 17.639L70.2361 18.229L71.8001 23.295L73.7111 22.705ZM71.1916 16.934H63.5076V18.934H71.1916V16.934ZM62.5539 17.6332L60.9559 22.6992L62.8633 23.3008L64.4613 18.2348L62.5539 17.6332ZM61.9096 22H56.0276V24H61.9096V22ZM56.971 23.3316L64.859 0.891623L62.9722 0.228375L55.0842 22.6684L56.971 23.3316ZM63.9156 1.56H70.9196V-0.440001H63.9156V1.56ZM69.9757 0.890349L77.8297 23.3303L79.7175 22.6696L71.8635 0.229649L69.9757 0.890349ZM64.5956 14.956H70.1036V12.956H64.5956V14.956ZM71.0605 13.6657L68.3065 4.58769L66.3927 5.1683L69.1467 14.2463L71.0605 13.6657ZM66.3927 4.58769L63.6387 13.6657L65.5525 14.2463L68.3065 5.1683L66.3927 4.58769ZM106.679 0.559999H107.679V-0.440001H106.679V0.559999ZM106.679 23V24H107.679V23H106.679ZM101.511 23H100.511V24H101.511V23ZM101.511 12.698L100.512 12.6734L100.511 12.6857V12.698H101.511ZM101.681 5.796L102.681 5.82062L102.706 4.796H101.681V5.796ZM101.613 5.796V4.796H100.885L100.662 5.48938L101.613 5.796ZM96.0714 23V24H96.7998L97.0232 23.3066L96.0714 23ZM91.3454 23L90.3935 23.3066L90.6169 24H91.3454V23ZM85.8034 5.796L86.7552 5.48938L86.5318 4.796H85.8034V5.796ZM85.7354 5.796V4.796H84.7104L84.7357 5.82062L85.7354 5.796ZM85.9054 12.698H86.9054V12.6857L86.9051 12.6734L85.9054 12.698ZM85.9054 23V24H86.9054V23H85.9054ZM80.7034 23H79.7034V24H80.7034V23ZM80.7034 0.559999V-0.440001H79.7034V0.559999H80.7034ZM89.0334 0.559999L89.9887 0.264316L89.7707 -0.440001H89.0334V0.559999ZM92.5694 11.984L93.5362 11.7285L93.5308 11.7083L93.5247 11.6883L92.5694 11.984ZM93.8274 16.744L92.8606 16.9995L93.0573 17.744H93.8274V16.744ZM93.8954 16.744V17.744H94.6587L94.86 17.0077L93.8954 16.744ZM95.1874 12.018L94.231 11.7257L94.2267 11.7399L94.2228 11.7543L95.1874 12.018ZM98.6894 0.559999V-0.440001H97.9493L97.733 0.267709L98.6894 0.559999ZM105.679 0.559999V23H107.679V0.559999H105.679ZM106.679 22H101.511V24H106.679V22ZM102.511 23V12.698H100.511V23H102.511ZM102.511 12.7226L102.681 5.82062L100.682 5.77138L100.512 12.6734L102.511 12.7226ZM101.681 4.796H101.613V6.796H101.681V4.796ZM100.662 5.48938L95.1195 22.6934L97.0232 23.3066L102.565 6.10262L100.662 5.48938ZM96.0714 22H91.3454V24H96.0714V22ZM92.2972 22.6934L86.7552 5.48938L84.8515 6.10262L90.3935 23.3066L92.2972 22.6934ZM85.8034 4.796H85.7354V6.796H85.8034V4.796ZM84.7357 5.82062L84.9057 12.7226L86.9051 12.6734L86.7351 5.77138L84.7357 5.82062ZM84.9054 12.698V23H86.9054V12.698H84.9054ZM85.9054 22H80.7034V24H85.9054V22ZM81.7034 23V0.559999H79.7034V23H81.7034ZM80.7034 1.56H89.0334V-0.440001H80.7034V1.56ZM88.0781 0.855682L91.6141 12.2797L93.5247 11.6883L89.9887 0.264316L88.0781 0.855682ZM91.6026 12.2395L92.8606 16.9995L94.7942 16.4885L93.5362 11.7285L91.6026 12.2395ZM93.8274 17.744H93.8954V15.744H93.8274V17.744ZM94.86 17.0077L96.152 12.2817L94.2228 11.7543L92.9308 16.4803L94.86 17.0077ZM96.1437 12.3103L99.6457 0.85229L97.733 0.267709L94.231 11.7257L96.1437 12.3103ZM98.6894 1.56H106.679V-0.440001H98.6894V1.56ZM130.485 0.559999L131.359 1.046L132.185 -0.440001H130.485V0.559999ZM122.563 14.806L121.689 14.32L121.563 14.5467V14.806H122.563ZM122.563 23V24H123.563V23H122.563ZM116.715 23H115.715V24H116.715V23ZM116.715 14.806H117.715V14.5467L117.589 14.32L116.715 14.806ZM108.793 0.559999V-0.440001H107.092L107.919 1.046L108.793 0.559999ZM114.845 0.559999L115.734 0.102984L115.455 -0.440001H114.845V0.559999ZM118.007 6.714L118.92 6.30709L118.909 6.2817L118.896 6.25698L118.007 6.714ZM119.673 10.454L118.759 10.8609L119.663 12.8909L120.583 10.8678L119.673 10.454ZM121.373 6.714L120.483 6.25698L120.472 6.27834L120.462 6.3002L121.373 6.714ZM124.535 0.559999V-0.440001H123.924L123.645 0.102984L124.535 0.559999ZM129.611 0.0740023L121.689 14.32L123.437 15.292L131.359 1.046L129.611 0.0740023ZM121.563 14.806V23H123.563V14.806H121.563ZM122.563 22H116.715V24H122.563V22ZM117.715 23V14.806H115.715V23H117.715ZM117.589 14.32L109.667 0.0740023L107.919 1.046L115.841 15.292L117.589 14.32ZM108.793 1.56H114.845V-0.440001H108.793V1.56ZM113.955 1.01701L117.117 7.17101L118.896 6.25698L115.734 0.102984L113.955 1.01701ZM117.093 7.12091L118.759 10.8609L120.586 10.0471L118.92 6.30709L117.093 7.12091ZM120.583 10.8678L122.283 7.1278L120.462 6.3002L118.762 10.0402L120.583 10.8678ZM122.262 7.17101L125.424 1.01701L123.645 0.102984L120.483 6.25698L122.262 7.17101ZM124.535 1.56H130.485V-0.440001H124.535V1.56Z" fill="#009951" mask="url(#path-1-outside-1_16_229)"/>
</g>
<defs>
<filter id="filter0_d_16_229" x="0.207642" y="0.560059" width="134.277" height="30.7798" filterUnits="userSpaceOnUse" color-interpolation-filters="sRGB">
<feFlood flood-opacity="0" result="BackgroundImageFix"/>
<feColorMatrix in="SourceAlpha" type="matrix" values="0 0 0 0 0 0 0 0 0 0 0 0 0 0 0 0 0 0 127 0" result="hardAlpha"/>
<feOffset dy="4"/>
<feGaussianBlur stdDeviation="2"/>
<feComposite in2="hardAlpha" operator="out"/>
<feColorMatrix type="matrix" values="0 0 0 0 0.845833 0 0 0 0 0.845833 0 0 0 0 0.845833 0 0 0 1 0"/>
<feBlend mode="normal" in2="BackgroundImageFix" result="effect1_dropShadow_16_229"/>
<feBlend mode="normal" in="SourceGraphic" in2="effect1_dropShadow_16_229" result="shape"/>
</filter>
</defs>
</svg>
